<?xml version="1.0" encoding="utf-8"?>
<!-- Generator: Adobe Illustrator 25.2.3, SVG Export Plug-In . SVG Version: 6.00 Build 0)  -->
<svg version="1.1" id="Layer_1" xmlns="http://www.w3.org/2000/svg" xmlns:xlink="http://www.w3.org/1999/xlink" x="0px" y="0px"
	 viewBox="0 0 128 128" enable-background="new 0 0 128 128" xml:space="preserve">
<g id="_x31_4-appointment">
	<g>
		<path fill="#E6E6E6" d="M112,128H16c-6.6,0-12-5.4-12-12V32h120v84C124,122.6,118.6,128,112,128z"/>
		<path fill="#E84A5F" d="M124,36H4V22c0-6.6,5.4-12,12-12h96c6.6,0,12,5.4,12,12V36z"/>
		<g>
			<circle fill="#FFFFFF" cx="33" cy="22" r="5"/>
			<circle fill="#FFFFFF" cx="95" cy="22" r="5"/>
			<path fill="#4D4D4D" d="M33,26L33,26c-2.2,0-4-1.8-4-4V4c0-2.2,1.8-4,4-4h0c2.2,0,4,1.8,4,4v18C37,24.2,35.2,26,33,26z"/>
			<path fill="#4D4D4D" d="M95,26L95,26c-2.2,0-4-1.8-4-4V4c0-2.2,1.8-4,4-4h0c2.2,0,4,1.8,4,4v18C99,24.2,97.2,26,95,26z"/>
		</g>
		<g>
			<path fill="#CCCCCC" d="M36,76H20c-2.2,0-4-1.8-4-4V56c0-2.2,1.8-4,4-4h16c2.2,0,4,1.8,4,4v16C40,74.2,38.2,76,36,76z"/>
			<path fill="#CCCCCC" d="M108,76H92c-2.2,0-4-1.8-4-4V56c0-2.2,1.8-4,4-4h16c2.2,0,4,1.8,4,4v16C112,74.2,110.2,76,108,76z"/>
			<path fill="#E84A5F" d="M75,79H53c-2.2,0-4-1.8-4-4V53c0-2.2,1.8-4,4-4h22c2.2,0,4,1.8,4,4v22C79,77.2,77.2,79,75,79z"/>
		</g>
		<g>
			<path fill="#CCCCCC" d="M36,112H20c-2.2,0-4-1.8-4-4V92c0-2.2,1.8-4,4-4h16c2.2,0,4,1.8,4,4v16C40,110.2,38.2,112,36,112z"/>
			<path fill="#CCCCCC" d="M108,112H92c-2.2,0-4-1.8-4-4V92c0-2.2,1.8-4,4-4h16c2.2,0,4,1.8,4,4v16C112,110.2,110.2,112,108,112z"/>
			<path fill="#CCCCCC" d="M72,112H56c-2.2,0-4-1.8-4-4V92c0-2.2,1.8-4,4-4h16c2.2,0,4,1.8,4,4v16C76,110.2,74.2,112,72,112z"/>
		</g>
		<g>
			<path opacity="0.2" fill="#CCCCCC" d="M16,121c-3.8,0-7.5-0.2-11.2-0.7c1.7,4.5,6.1,7.7,11.2,7.7h96c6.6,0,12-5.4,12-12V36h-17.2
				C103.7,83.5,64.2,121,16,121z"/>
			<path opacity="0.2" fill="#AE3847" d="M124,22c0-6.6-5.4-12-12-12h-7.2c1.4,6.4,2.2,13.1,2.2,20c0,2-0.1,4-0.2,6H124v-4V22z"/>
		</g>
	</g>
	<g>
		<g>
			<g>
				<path fill="#396492" d="M52.3,75.7L52.3,75.7c-0.4-0.4-0.4-1,0-1.4L67,59.6l1.4,1.4L53.7,75.7C53.3,76.1,52.7,76.1,52.3,75.7z"
					/>
				<path fill="#FFFFFF" d="M75.4,62.4l-9.8-9.8c-0.8-0.8-0.8-2,0-2.8l37.9-37.9l12.6,12.6L78.2,62.4C77.5,63.2,76.2,63.2,75.4,62.4
					z"/>
				
					<rect x="106.1" y="8" transform="matrix(0.7071 -0.7071 0.7071 0.7071 23.5145 84.7207)" fill="#FFFFFF" width="15.9" height="11.9"/>
				<path fill="#083D77" d="M67.7,63.1l-2.8-2.8c-0.8-0.8-0.8-2,0-2.8l2.8-2.8l5.6,5.6l-2.8,2.8C69.8,63.9,68.5,63.9,67.7,63.1z"/>
				<path fill="#396492" d="M98.6,42L86,29.4l3.5-3.5c0.4-0.4,1-0.4,1.4,0l11.2,11.2c0.4,0.4,0.4,1,0,1.4L98.6,42z"/>
				<path fill="#396492" d="M114.8,28.8L99.2,13.2c-0.7-0.7-0.7-1.9,0-2.6l0.2-0.2c0.7-0.7,1.9-0.7,2.6,0L117.6,26
					c0.7,0.7,0.7,1.9,0,2.6l-0.2,0.2C116.7,29.5,115.5,29.5,114.8,28.8z"/>
				<path fill="#396492" d="M124.7,16.2L111.8,3.3c-0.7-0.7-0.7-1.9,0-2.6l0.2-0.2c0.7-0.7,1.9-0.7,2.6,0l12.9,12.9
					c0.7,0.7,0.7,1.9,0,2.6l-0.2,0.2C126.5,16.9,125.4,16.9,124.7,16.2z"/>
			</g>
			<path fill="#2F97C1" d="M75.4,62.4l-9.8-9.8c-0.8-0.8-0.8-2,0-2.8L86,29.4L98.6,42L78.2,62.4C77.5,63.2,76.2,63.2,75.4,62.4z"/>
			<path opacity="0.5" fill="#ACD5E6" d="M71.3,47.1l-0.2-0.2c-0.3-0.3-0.3-0.8,0-1.2l11.5-11.5c0.3-0.3,0.8-0.3,1.2,0l0.2,0.2
				c0.3,0.3,0.3,0.8,0,1.2L72.5,47.1C72.2,47.4,71.7,47.4,71.3,47.1z"/>
			<g opacity="0.3">
				<path fill="#CCCCCC" d="M107.7,30.1l-1.4-1.4c-0.4-0.4-0.4-1,0-1.4v0c0.4-0.4,1-0.4,1.4,0l1.4,1.4c0.4,0.4,0.4,1,0,1.4v0
					C108.7,30.5,108.1,30.5,107.7,30.1z"/>
				<path fill="#CCCCCC" d="M103.5,34.3l-4.2-4.2c-0.4-0.4-0.4-1,0-1.4l0,0c0.4-0.4,1-0.4,1.4,0l4.2,4.2c0.4,0.4,0.4,1,0,1.4h0
					C104.5,34.7,103.9,34.7,103.5,34.3z"/>
				<path fill="#ACD5E6" d="M99.3,38.5l-1.4-1.4c-0.4-0.4-0.4-1,0-1.4l0,0c0.4-0.4,1-0.4,1.4,0l1.4,1.4c0.4,0.4,0.4,1,0,1.4l0,0
					C100.3,38.9,99.7,38.9,99.3,38.5z"/>
				<path fill="#ACD5E6" d="M95.1,42.7l-4.2-4.2c-0.4-0.4-0.4-1,0-1.4h0c0.4-0.4,1-0.4,1.4,0l4.2,4.2c0.4,0.4,0.4,1,0,1.4l0,0
					C96.1,43.1,95.5,43.1,95.1,42.7z"/>
				<path fill="#ACD5E6" d="M90.9,46.9l-1.4-1.4c-0.4-0.4-0.4-1,0-1.4v0c0.4-0.4,1-0.4,1.4,0l1.4,1.4c0.4,0.4,0.4,1,0,1.4l0,0
					C91.9,47.3,91.3,47.3,90.9,46.9z"/>
				<path fill="#ACD5E6" d="M86.7,51.2l-4.2-4.2c-0.4-0.4-0.4-1,0-1.4l0,0c0.4-0.4,1-0.4,1.4,0l4.2,4.2c0.4,0.4,0.4,1,0,1.4l0,0
					C87.7,51.5,87.1,51.5,86.7,51.2z"/>
				<path fill="#ACD5E6" d="M82.5,55.4L81.1,54c-0.4-0.4-0.4-1,0-1.4v0c0.4-0.4,1-0.4,1.4,0l1.4,1.4c0.4,0.4,0.4,1,0,1.4l0,0
					C83.5,55.8,82.8,55.8,82.5,55.4z"/>
				<path fill="#ACD5E6" d="M78.2,59.6L74,55.4c-0.4-0.4-0.4-1,0-1.4l0,0c0.4-0.4,1-0.4,1.4,0l4.2,4.2c0.4,0.4,0.4,1,0,1.4l0,0
					C79.3,60,78.6,60,78.2,59.6z"/>
			</g>
		</g>
	</g>
</g>
</svg>
