<svg width="77" height="77" viewBox="0 0 77 77" fill="none" xmlns="http://www.w3.org/2000/svg">
<path d="M76.1781 38.9187C76.1896 47.8666 73.0347 56.53 67.2718 63.375C66.3614 64.4546 65.3933 65.4842 64.3718 66.4594H12.0624C11.0689 65.594 10.1296 64.6683 9.24994 63.6875C9.17181 63.6 9.08744 63.5 8.99056 63.375C6.80306 60.7719 -0.275063 51.5437 0.090562 38.9187C0.599937 21.4281 15.3062 0.875 38.1374 0.875C43.1333 0.875 48.0802 1.85905 52.6957 3.77097C57.3112 5.68288 61.5049 8.48522 65.0373 12.0179C68.5698 15.5507 71.3718 19.7446 73.2833 24.3603C75.1948 28.9759 76.1785 33.9229 76.1781 38.9187Z" fill="#84D0F7"/>
<path d="M67.2718 63.375C66.3622 64.4543 65.3941 65.483 64.3718 66.4562C57.3009 73.2059 47.8971 76.9652 38.1218 76.95C25.7531 76.95 16.4906 70.3875 12.0593 66.4562C11.0695 65.5891 10.1314 64.6646 9.24995 63.6875C9.17495 63.5969 9.08433 63.5 8.99683 63.375C13.2375 59.0969 18.95 55.775 25.525 53.8937C27.3687 58.475 32.3187 61.7562 38.125 61.7562C43.525 61.7562 48.1781 58.925 50.2812 54.8531C50.4468 54.5406 50.5937 54.2281 50.725 53.8937C50.85 53.9281 50.925 53.9469 51.0843 53.9969C57.5187 55.8969 63.1062 59.1781 67.2718 63.375Z" fill="#AA392D"/>
<path d="M50.7281 53.8906C50.5968 54.2031 50.45 54.5344 50.2843 54.85C48.1812 58.9125 43.5281 61.7531 38.1281 61.7531C32.3218 61.7531 27.3718 58.4719 25.5281 53.8906L26.3593 53.6594L26.4281 53.6406C26.4281 53.6406 26.9843 53.4938 27.4968 53.3781C28.4655 55.3741 29.9764 57.0572 31.8568 58.2348C33.7371 59.4123 35.911 60.0368 38.1296 60.0368C40.3483 60.0368 42.5221 59.4123 44.4025 58.2348C46.2829 57.0572 47.7938 55.3741 48.7625 53.3781C49.4353 53.4721 50.095 53.6441 50.7281 53.8906Z" fill="#7C211A"/>
<path d="M48.7624 53.375C47.7921 55.3668 46.2814 57.0458 44.4027 58.2203C42.5241 59.3948 40.3531 60.0176 38.1374 60.0176C35.9218 60.0176 33.7508 59.3948 31.8722 58.2203C29.9935 57.0458 28.4828 55.3668 27.5125 53.375C27.9343 53.2687 28.3562 53.1812 28.7843 53.0906L29.0968 53.0281C29.1491 53.0128 29.2023 53.0013 29.2562 52.9937C29.3468 52.9719 29.4374 52.9594 29.5249 52.9375L29.9 52.875L30.1843 52.8187H30.2125C30.3218 52.55 30.425 52.2594 30.525 51.9406C30.5593 51.8375 30.5968 51.7187 30.6312 51.6094C30.7531 51.1531 30.8437 50.7219 30.9062 50.3406C31.5724 50.8919 32.2939 51.3726 33.0593 51.775C33.1162 51.8021 33.1715 51.8324 33.2249 51.8656C33.2874 51.8937 33.3562 51.9281 33.4187 51.9625L33.6562 52.0719C33.7031 52.0937 33.7531 52.1125 33.7937 52.1344L33.9124 52.1906L34.0562 52.2531L34.1937 52.3094C34.2136 52.3199 34.2345 52.3283 34.2562 52.3344C34.3111 52.3586 34.3675 52.3795 34.4249 52.3969C34.4843 52.425 34.5562 52.4531 34.6312 52.4812C34.7093 52.5094 34.7781 52.5375 34.8593 52.5625C34.8757 52.5687 34.8924 52.5739 34.9093 52.5781L35.0687 52.6344C35.1531 52.6531 35.2281 52.6812 35.3093 52.7031C35.3906 52.725 35.3812 52.7219 35.4218 52.7312L35.6437 52.7937C36.1088 52.906 36.5806 52.9884 37.0562 53.0406C37.1031 53.0406 37.1531 53.0406 37.1999 53.0562H37.3031H37.4968H37.6718H37.8718H38.0437C39.0759 53.0533 40.1008 52.8823 41.0781 52.55C41.081 52.5514 41.0842 52.5521 41.0874 52.5521C41.0907 52.5521 41.0939 52.5514 41.0968 52.55C41.1355 52.5427 41.1732 52.5312 41.2093 52.5156C41.4593 52.4312 41.6781 52.3406 41.8718 52.2656L42.1374 52.1562L42.2062 52.1281C43.3239 51.6498 44.3628 51.005 45.2874 50.2156C45.3843 50.6469 45.4999 51.1031 45.6468 51.5812C45.7781 52.0094 45.9156 52.4125 46.0531 52.7906C46.1718 52.8125 46.2843 52.8281 46.3999 52.8531L46.7406 52.9156L47.0781 52.9781L47.3281 53.0281C47.3843 53.0281 47.4406 53.0562 47.4937 53.0625C47.9249 53.1844 48.3468 53.2719 48.7624 53.375Z" fill="#E59973"/>
<path d="M22.9999 28.4406C22.716 30.0123 22.6111 31.611 22.6874 33.2063C22.6874 33.5188 22.7217 33.85 22.7592 34.1656C22.7592 34.2844 22.778 34.4094 22.7936 34.5281C22.1342 34.1813 21.8561 32.6531 21.3467 29.7563C21.0342 27.9313 20.8624 27.0156 20.9092 26.0063C21.0299 24.4581 21.4636 22.9505 22.1842 21.575C22.4998 22.7289 23.1821 23.7489 24.128 24.4813C23.6264 25.762 23.2486 27.0879 22.9999 28.4406Z" fill="#2D2D2D"/>
<path d="M54.8937 29.7562C54.6468 31.1687 54.4531 32.2562 54.2437 33.0312C54.0218 33.875 53.7812 34.3687 53.4281 34.5344C53.4812 34.0344 53.525 33.5437 53.5437 33.0469C53.6179 31.5054 53.5204 29.9605 53.2531 28.4406C53.065 27.3975 52.7965 26.3705 52.45 25.3687C52.45 25.3687 52.45 25.3469 52.45 25.3406C53.2933 24.7792 54.1031 24.1688 54.875 23.5125C55.1254 24.3255 55.2837 25.1641 55.3468 26.0125C55.3875 27.0219 55.2187 27.9375 54.8937 29.7562Z" fill="#2D2D2D"/>
<path opacity="0.2" d="M51.0875 54C50.8312 54.3125 50.5625 54.5813 50.2843 54.8563C49.676 55.4735 49.0209 56.0429 48.325 56.5594C47.412 57.2429 46.4167 57.8088 45.3625 58.2438C44.6961 58.5126 44.0054 58.7167 43.3 58.8531C42.6766 58.9692 42.0434 59.0247 41.4093 59.0188C40.1669 58.9907 38.9403 58.7343 37.7906 58.2625C37.7211 58.2377 37.6532 58.2085 37.5875 58.175C36.6697 57.7834 35.7995 57.2885 34.9937 56.7C33.4802 55.5719 32.1472 54.2199 31.0406 52.6906C30.8593 52.45 30.6875 52.2063 30.5125 51.95C30.5468 51.8469 30.5843 51.7281 30.6187 51.6188C30.7406 51.1625 30.8312 50.7313 30.8937 50.35C31.075 50.4958 31.2625 50.6396 31.4562 50.7813C31.9644 51.1493 32.4957 51.4843 33.0468 51.7844C33.1037 51.8115 33.159 51.8418 33.2125 51.875C33.275 51.9031 33.3437 51.9375 33.4062 51.9719L33.6437 52.0813C33.6906 52.1031 33.7406 52.1219 33.7812 52.1438L33.9 52.2L34.0437 52.2625L34.1812 52.3188C34.2011 52.3293 34.222 52.3377 34.2437 52.3438L34.4125 52.4063L34.6187 52.4906L34.8468 52.5719C34.8632 52.5781 34.8799 52.5833 34.8968 52.5875L35.0562 52.6438C35.1406 52.6625 35.2156 52.6906 35.2968 52.7125C35.3781 52.7344 35.3687 52.7313 35.4093 52.7406L35.6312 52.8031C36.0953 52.92 36.5675 53.0025 37.0437 53.05C37.0906 53.05 37.1406 53.05 37.1875 53.0656H37.2906H37.4843H37.6593H37.8593H38.0312C39.0628 53.0558 40.0866 52.885 41.0656 52.5594C41.0685 52.5608 41.0717 52.5615 41.075 52.5615C41.0782 52.5615 41.0814 52.5608 41.0843 52.5594C41.123 52.5521 41.1607 52.5406 41.1968 52.525C41.4031 52.4563 41.6062 52.3781 41.8062 52.2969L41.8687 52.275L42.125 52.1656L42.1937 52.1375C43.1026 51.7199 43.9656 51.2088 44.7687 50.6125C44.9406 50.4906 45.1062 50.3563 45.275 50.225C45.3718 50.6563 45.4875 51.1125 45.6343 51.5906C45.7656 52.0188 45.9031 52.4219 46.0406 52.8C46.1593 52.8219 46.2718 52.8375 46.3875 52.8625L46.7281 52.925L47.0656 52.9875L47.3156 53.0375C47.3718 53.0375 47.4281 53.0656 47.4812 53.0719C47.9125 53.1625 48.3343 53.25 48.75 53.3563C49.4125 53.5063 50.0718 53.6688 50.7156 53.8688L51.0875 54Z" fill="black"/>
<path d="M56.2563 36.4375C56.2063 38.0562 55.1719 39.6969 54.0125 40.3C53.8571 40.382 53.6924 40.4449 53.5219 40.4875C53.5094 40.4889 53.4968 40.4889 53.4844 40.4875C53.2796 40.5371 53.0668 40.5435 52.8594 40.5063C52.6333 40.4618 52.4199 40.3679 52.2344 40.2312L52.1469 40.1687C52.0188 40.0652 51.9016 39.949 51.7969 39.8219C50.9625 38.8156 50.6219 36.9281 51.1719 35.4219C51.3978 34.8374 51.7413 34.3056 52.1813 33.8594C52.5535 33.4615 53.0334 33.1803 53.5625 33.05C53.8058 33 54.0567 33 54.3 33.05C55.6625 33.3156 56.2969 35.0812 56.2563 36.4375Z" fill="#E59973"/>
<path opacity="0.3" d="M56.2531 36.4375C56.2063 38.0562 55.1719 39.6969 54.0125 40.3C53.8571 40.382 53.6924 40.4449 53.5219 40.4875C53.5094 40.4889 53.4968 40.4889 53.4844 40.4875C53.2796 40.5371 53.0668 40.5435 52.8594 40.5063C52.6333 40.4618 52.4199 40.3679 52.2344 40.2312L52.1469 40.1687C52.0188 40.0652 51.9016 39.949 51.7969 39.8219C50.9625 38.8156 50.6219 36.9281 51.1719 35.4219C51.3978 34.8374 51.7413 34.3056 52.1813 33.8594C52.5535 33.4615 53.0334 33.1803 53.5625 33.05C53.8058 33 54.0567 33 54.3 33.05C55.6625 33.3156 56.2969 35.0812 56.2531 36.4375Z" fill="black"/>
<path d="M24.4719 39.8313C24.3444 39.9869 24.1973 40.1255 24.0344 40.2438C23.8481 40.3783 23.6349 40.4711 23.4094 40.5156C23.2021 40.5529 22.9892 40.5465 22.7844 40.4969H22.7469C22.5763 40.4548 22.4115 40.3918 22.2563 40.3094C21.0969 39.7063 20.0688 38.0656 20.0126 36.4469C19.9719 35.0906 20.6063 33.3219 21.9813 33.05C22.7657 32.8938 23.5126 33.2719 24.1032 33.8625C24.5431 34.3087 24.8867 34.8406 25.1126 35.425C25.647 36.9375 25.3063 38.825 24.4719 39.8313Z" fill="#E59973"/>
<path d="M53.5435 33.0625C53.5248 33.5594 53.481 34.05 53.4279 34.55C53.2122 36.469 52.7749 38.3566 52.1248 40.175C50.6716 44.2594 48.2279 47.8812 45.2873 50.2469C45.1185 50.3781 44.9529 50.5125 44.781 50.6344C43.9779 51.2307 43.115 51.7418 42.206 52.1594L42.1373 52.1875L41.881 52.2969L41.8185 52.3187C41.6185 52.4 41.4154 52.4781 41.2091 52.5469C41.173 52.5625 41.1353 52.574 41.0966 52.5812C41.0937 52.5826 41.0905 52.5834 41.0873 52.5834C41.084 52.5834 41.0808 52.5826 41.0779 52.5812C40.0989 52.9068 39.0752 53.0776 38.0435 53.0875H37.8716H37.6716H37.4966H37.3029H37.1998C37.1529 53.0875 37.1029 53.0875 37.056 53.0719C36.5798 53.0244 36.1077 52.9419 35.6435 52.825L35.4216 52.7625C35.381 52.7625 35.3466 52.7406 35.3091 52.7344C35.2716 52.7281 35.1529 52.6844 35.0685 52.6656L34.9091 52.6094C34.8922 52.6051 34.8755 52.5999 34.8591 52.5937L34.631 52.5125L34.4248 52.4281L34.256 52.3656C34.2343 52.3596 34.2134 52.3512 34.1935 52.3406L34.056 52.2844L33.9123 52.2219L33.7935 52.1656C33.7529 52.1437 33.7029 52.125 33.656 52.1031L33.4185 51.9937C33.356 51.9594 33.2873 51.925 33.2248 51.8969C33.1713 51.8636 33.116 51.8334 33.0591 51.8062C32.5081 51.5062 31.9768 51.1711 31.4685 50.8031C31.2748 50.6615 31.0873 50.5177 30.906 50.3719C29.9223 49.5832 29.0246 48.6928 28.2279 47.7156C26.344 45.3932 24.9015 42.7453 23.9716 39.9031C23.3924 38.1694 23.0047 36.3775 22.8154 34.5594C22.7998 34.4406 22.7873 34.3156 22.781 34.1969C22.7435 33.8844 22.7248 33.5719 22.7091 33.2375C22.6329 31.6422 22.7378 30.0435 23.0216 28.4719C23.2724 27.1189 23.6523 25.793 24.156 24.5125C24.3654 23.9656 24.5998 23.4187 24.856 22.8812C26.0968 20.1876 27.9097 17.7967 30.1685 15.875C30.2654 15.7906 30.3623 15.7156 30.4591 15.6406C32.6209 13.8884 35.3081 12.9123 38.0904 12.8687C41.1341 12.8687 43.8341 14.025 46.0904 15.8687C47.2959 16.8598 48.3693 18.0014 49.2841 19.2656C50.3708 20.7627 51.2742 22.3847 51.9748 24.0969C52.1404 24.5281 52.3091 24.9437 52.4529 25.3719C52.4529 25.3719 52.4529 25.3937 52.4529 25.4C52.7995 26.4017 53.068 27.4287 53.256 28.4719C53.5211 29.9868 53.6175 31.5264 53.5435 33.0625Z" fill="#E59973"/>
<path opacity="0.2" d="M55.3312 26.0063C55.005 26.3503 54.6483 26.6641 54.2655 26.9438C54.2374 26.9719 54.0905 27.0688 53.9062 27.2C53.5937 27.4 53.2812 27.6031 52.9687 27.7969C51.6442 28.5997 50.2437 29.2696 48.7874 29.7969C45.6445 30.9271 42.2998 31.3872 38.9684 31.1477C35.6371 30.9082 32.3926 29.9744 29.4437 28.4063C28.7468 28.025 28.0687 27.6094 27.4155 27.1563C27.1937 27.0031 26.9812 26.8438 26.7655 26.6938C26.1933 26.2774 25.6435 25.831 25.1187 25.3563C24.8687 25.1344 24.6187 24.9063 24.3843 24.6719C25.2276 25.3039 26.146 25.8287 27.1187 26.2344C29.1343 27.1219 31.5343 27.7969 33.8687 28.4219C35.8857 29.0177 37.975 29.3331 40.078 29.3594C42.1973 29.3712 44.3055 29.0549 46.328 28.4219C47.2481 28.1248 48.1418 27.7516 48.9999 27.3063C49.4093 27.1063 49.8187 26.8844 50.2499 26.6563C51.0655 26.2125 51.778 25.7844 52.4374 25.3344C53.2675 24.7789 54.0646 24.1758 54.8249 23.5281C55.0957 24.33 55.2658 25.1624 55.3312 26.0063Z" fill="black"/>
<path d="M60.2311 16.7625C60.2123 18.5094 58.5717 20.1 58.0936 20.55C56.8686 21.7125 55.8561 22.6687 54.8592 23.5125L54.8311 23.5344C54.0708 24.1821 53.2736 24.7852 52.4436 25.3406C51.7779 25.7906 51.0654 26.2187 50.2561 26.6625C49.8342 26.8906 49.4248 27.1125 49.0061 27.3125C48.1479 27.7578 47.2542 28.131 46.3342 28.4281C44.3117 29.0612 42.2034 29.3774 40.0842 29.3656C37.9812 29.3393 35.8918 29.0239 33.8748 28.4281C31.5405 27.775 29.1405 27.1125 27.1248 26.2406C26.1522 25.835 25.2337 25.3101 24.3905 24.6781C24.3061 24.6062 24.2248 24.5469 24.1405 24.475C23.1945 23.7427 22.5123 22.7226 22.1967 21.5687C21.453 18.6187 23.6061 15.6906 23.9373 15.25C24.9553 13.9477 26.2967 12.9349 27.828 12.3125C30.7404 11.0812 32.0905 12.0437 38.4248 12.3125C44.0498 12.5562 46.8623 12.6812 49.5279 11.6406C50.6029 11.2187 52.6092 10.2906 52.9654 10.7906C53.2498 11.1906 52.4248 12.3812 52.2311 12.6656C51.5061 13.7094 50.8967 13.9937 50.9811 14.2281C51.1404 14.6281 52.8998 14.4344 54.3654 14.0062C55.9279 13.55 56.5123 13.0094 56.7873 13.2719C57.1623 13.625 56.6029 15.1469 55.6592 16.1469C54.9811 16.8719 54.3529 17.0844 54.4092 17.3281C54.4998 17.6625 55.7092 17.7781 56.8311 17.4937C58.6029 17.0531 59.5029 15.7562 60.0029 16.0844C60.1404 16.1687 60.2373 16.35 60.2311 16.7625Z" fill="#2D2D2D"/>
</svg>
