<?xml version="1.0" encoding="utf-8"?>
<!-- Generator: Adobe Illustrator 25.2.3, SVG Export Plug-In . SVG Version: 6.00 Build 0)  -->
<svg version="1.1" id="Layer_1" xmlns="http://www.w3.org/2000/svg" xmlns:xlink="http://www.w3.org/1999/xlink" x="0px" y="0px"
	 viewBox="0 0 128 128" enable-background="new 0 0 128 128" xml:space="preserve">
<g id="_x31_8-vaccinated">
	<g>
		<g>
			<path fill="#396492" d="M64,90c-21,0-38,7.2-38,16v22h76v-22C102,97.2,85,90,64,90z"/>
			<path fill="#FFCBA6" d="M71.5,82h-15L55,91c0,5,4,9,9,9s9-4,9-9L71.5,82z"/>
			<path opacity="0.5" fill="#FF9F80" d="M73,91c0,5-4,9-9,9s-9-4-9-9h0.1c0.7,4.3,4.4,7.5,8.9,7.5s8.2-3.2,8.9-7.5H73z"/>
			<g>
				<g>
					<g>
						<path d="M99,35c0,19.3-15.7,35-35,35S29,54.3,29,35c0-2.9,0.3-5.7,1-8.4C33.8,11.3,47.6,0,64,0c18.9,0,34.4,15.1,35,33.8
							C99,34.2,99,34.6,99,35z"/>
						<g>
							<g>
								<path fill="#FFCBA6" d="M88,43v18c0,13.2-10.8,24-24,24c-3,0-5.8-0.5-8.4-1.5C46.5,80,40,71.2,40,61V43
									c0-2.3,0.3-4.5,0.9-6.6C43.8,26.4,53.1,19,64,19c3.5,0,6.8,0.8,9.8,2.1c2.7,1.2,5.1,2.9,7.2,5C85.3,30.4,88,36.4,88,43z"/>
								<path opacity="0.5" fill="#FF9F80" d="M88,43v18c0,13.2-10.8,24-24,24c-3,0-5.8-0.5-8.4-1.5c0.3,0,0.6,0,0.9,0h3
									C71.9,83.5,82,73.4,82,61V38.5c0-7-3.2-13.3-8.2-17.4c2.7,1.2,5.1,2.9,7.2,5C85.3,30.4,88,36.4,88,43z"/>
							</g>
						</g>
						<g>
							<path opacity="0.5" fill="#FF9F80" d="M73.8,21.1c-3-1.3-6.3-2.1-9.8-2.1c-10.8,0-19.9,7.2-22.9,17c0.6,0.1,1.2,0.1,1.8,0.1
								c5.2,0,9.9-2.2,13.2-5.8c3.8,5.6,9.4,9.8,16,11.9h0c0.5,0.2,1,0.3,1.4,0.4c2.5,0.7,5,1,7.7,1c0.3,0,0.7,0,1,0
								c2-0.1,3.9-0.3,5.7-0.7c0-6.5-2.7-12.5-7-16.8C78.9,24,76.5,22.3,73.8,21.1z"/>
							<path d="M99,33.8c-3,2.2-6.4,3.8-10.1,4.7c-0.2,0.1-0.5,0.1-0.7,0.2c-1.9,0.5-3.9,0.7-5.9,0.8c-0.3,0-0.7,0-1.1,0
								c-10.4,0-19.7-5.3-25.1-13.3c-3.3,3.6-8,5.8-13.2,5.8c-0.4,0-0.8,0-1.2,0c-1.2-0.1-2.4-0.3-3.5-0.6c-3.2-0.8-6-2.5-8.2-4.9
								C33.8,11.3,47.6,0,64,0C82.9,0,98.4,15.1,99,33.8z"/>
						</g>
						<g>
							<g>
								<path d="M52,55L52,55c-1.7,0-3-1.3-3-3v0c0-1.6,1.3-3,3-3h0c1.6,0,3,1.3,3,3v0C55,53.7,53.7,55,52,55z"/>
							</g>
							<g>
								<path d="M76,55L76,55c-1.7,0-3-1.3-3-3v0c0-1.6,1.3-3,3-3l0,0c1.7,0,3,1.3,3,3v0C79,53.7,77.7,55,76,55z"/>
							</g>
							<path fill="#FF9F80" d="M64,64L64,64c-1.7,0-3-1.4-3-3v-3c0-1.7,1.3-3,3-3h0c1.7,0,3,1.3,3,3v3C67,62.6,65.7,64,64,64z"/>
							<path fill="#FFFFFF" d="M73,68c0,5.5-4,10-9,10s-9-4.5-9-10H73z"/>
							<g>
								<path d="M55.1,44h-6.1c-0.5,0-0.9-0.4-0.9-0.9v-0.1c0-0.5,0.4-0.9,0.9-0.9h6.1c0.5,0,0.9,0.4,0.9,0.9v0.1
									C56,43.6,55.6,44,55.1,44z"/>
								<path d="M79.1,44h-6.1c-0.5,0-0.9-0.4-0.9-0.9v-0.1c0-0.5,0.4-0.9,0.9-0.9h6.1c0.5,0,0.9,0.4,0.9,0.9v0.1
									C80,43.6,79.6,44,79.1,44z"/>
							</g>
						</g>
					</g>
				</g>
			</g>
			<g>
				<g>
					<path fill="#FFCBA6" d="M40,56c-2.2,0-4-1.8-4-4s1.8-4,4-4V56z"/>
					<path fill="#FF9F80" d="M40,54c-1.1,0-2-0.9-2-2c0-1.1,0.9-2,2-2V54z"/>
				</g>
				<g>
					<path fill="#FFCBA6" d="M88,48c2.2,0,4,1.8,4,4s-1.8,4-4,4V48z"/>
					<path fill="#FF9F80" d="M88,50c1.1,0,2,0.9,2,2c0,1.1-0.9,2-2,2V50z"/>
				</g>
			</g>
		</g>
	</g>
	<g>
		<g>
			<g>
				<g>
					<path fill="#00B8A9" d="M102,80l-20,7.4v7.4c0,4.5,0.9,15.7,10.2,25.6c3.3,3.4,6.8,5.9,9.8,7.6c3-1.7,6.5-4.2,9.8-7.6
						c9.3-9.9,10.2-21.1,10.2-25.6v-7.4L102,80z"/>
				</g>
				<g>
					<path fill="#CEF1EE" d="M102,124.3c-2.8-1.8-5.3-3.8-7.5-6.1c-8-8.5-9.3-18.3-9.3-23.4l0-5.1l16.8-6.2l16.8,6.2v5.2
						c0,5.1-1.3,14.9-9.3,23.4C107.3,120.4,104.8,122.5,102,124.3z"/>
				</g>
			</g>
		</g>
		<g>
			<g>
				<circle fill="#FFFFFF" cx="109" cy="98" r="7"/>
			</g>
			<path fill="#00B8A9" d="M107.3,102c-0.3,0-0.7-0.1-0.9-0.4l-2-2c-0.5-0.5-0.5-1.4,0-1.9c0.5-0.5,1.4-0.5,1.9,0l1.1,1.1l4.4-4.4
				c0.5-0.5,1.4-0.5,1.9,0s0.5,1.4,0,1.9l-5.3,5.3C108,101.9,107.7,102,107.3,102z"/>
		</g>
		<g>
			<g>
				<path fill="#FFFFFF" d="M89.7,98.6l2.9-2.9c0.3-0.3,0.7-0.3,1,0l14.3,14.3l-3.9,3.9L89.7,99.6C89.4,99.3,89.4,98.9,89.7,98.6z"
					/>
				
					<rect x="104.8" y="110.8" transform="matrix(0.7071 -0.7071 0.7071 0.7071 -48.5073 108.6216)" fill="#FFFFFF" width="4.2" height="4.2"/>
				<path fill="#396492" d="M87.2,93.2L87.2,93.2c0.3-0.3,0.7-0.3,1,0l3.4,3.4l-1,1l-3.4-3.4C86.9,93.9,86.9,93.5,87.2,93.2z"/>
				<path fill="#083D77" d="M89.7,96.6l1-1c0.3-0.3,0.7-0.3,1,0l0.5,0.5l-2,2l-0.5-0.5C89.4,97.4,89.4,96.9,89.7,96.6z"/>
				<path fill="#396492" d="M96.1,106l3.9-3.9l0.5,0.5c0.3,0.3,0.3,0.7,0,1l-2.9,2.9c-0.3,0.3-0.7,0.3-1,0L96.1,106z"/>
				<path fill="#396492" d="M102.4,113.4l4.9-4.9c0.3-0.3,0.7-0.3,1,0l0,0c0.3,0.3,0.3,0.7,0,1l-4.9,4.9c-0.3,0.3-0.7,0.3-1,0l0,0
					C102.2,114.1,102.2,113.6,102.4,113.4z"/>
				<path fill="#396492" d="M105.9,115.8l3.9-3.9c0.3-0.3,0.7-0.3,1,0v0c0.3,0.3,0.3,0.7,0,1l-3.9,3.9c-0.3,0.3-0.7,0.3-1,0v0
					C105.6,116.5,105.6,116.1,105.9,115.8z"/>
			</g>
			<path fill="#2F97C1" d="M89.7,98.6l2.9-2.9c0.3-0.3,0.7-0.3,1,0l6.4,6.4l-3.9,3.9l-6.4-6.4C89.4,99.3,89.4,98.9,89.7,98.6z"/>
			<path opacity="0.5" fill="#ACD5E6" d="M93.8,97.4L93.8,97.4c0.1-0.1,0.4-0.1,0.5,0l3.4,3.4c0.1,0.1,0.1,0.4,0,0.5l0,0
				c-0.1,0.1-0.4,0.1-0.5,0l-3.4-3.4C93.7,97.7,93.7,97.5,93.8,97.4z"/>
			<g opacity="0.2">
				<path fill="#ACD5E6" d="M92.1,100.6l0.5-0.5c0.1-0.1,0.4-0.1,0.5,0l0,0c0.1,0.1,0.1,0.4,0,0.5l-0.5,0.5c-0.1,0.1-0.4,0.1-0.5,0
					l0,0C92,100.9,92,100.7,92.1,100.6z"/>
				<path fill="#ACD5E6" d="M91.1,99.6l1-1c0.1-0.1,0.4-0.1,0.5,0h0c0.1,0.1,0.1,0.4,0,0.5l-1,1c-0.1,0.1-0.4,0.1-0.5,0l0,0
					C91,99.9,91,99.7,91.1,99.6z"/>
				<path fill="#ACD5E6" d="M94.1,102.5l0.5-0.5c0.1-0.1,0.4-0.1,0.5,0l0,0c0.1,0.1,0.1,0.4,0,0.5l-0.5,0.5c-0.1,0.1-0.4,0.1-0.5,0
					v0C93.9,102.9,93.9,102.7,94.1,102.5z"/>
				<path fill="#ACD5E6" d="M93.1,101.6l1-1c0.1-0.1,0.4-0.1,0.5,0l0,0c0.1,0.1,0.1,0.4,0,0.5l-1,1c-0.1,0.1-0.4,0.1-0.5,0h0
					C93,101.9,93,101.7,93.1,101.6z"/>
				<path fill="#ACD5E6" d="M96.1,104.5l0.5-0.5c0.1-0.1,0.4-0.1,0.5,0l0,0c0.1,0.1,0.1,0.4,0,0.5l-0.5,0.5c-0.1,0.1-0.4,0.1-0.5,0
					l0,0C95.9,104.9,95.9,104.6,96.1,104.5z"/>
				<path fill="#ACD5E6" d="M95.1,103.5l1-1c0.1-0.1,0.4-0.1,0.5,0l0,0c0.1,0.1,0.1,0.4,0,0.5l-1,1c-0.1,0.1-0.4,0.1-0.5,0l0,0
					C94.9,103.9,94.9,103.7,95.1,103.5z"/>
				<path fill="#808080" d="M98,106.5l0.5-0.5c0.1-0.1,0.4-0.1,0.5,0l0,0c0.1,0.1,0.1,0.4,0,0.5l-0.5,0.5c-0.1,0.1-0.4,0.1-0.5,0h0
					C97.9,106.8,97.9,106.6,98,106.5z"/>
				<path fill="#ACD5E6" d="M97,105.5l1-1c0.1-0.1,0.4-0.1,0.5,0l0,0c0.1,0.1,0.1,0.4,0,0.5l-1,1c-0.1,0.1-0.4,0.1-0.5,0l0,0
					C96.9,105.8,96.9,105.6,97,105.5z"/>
				<path fill="#808080" d="M100,108.4l0.5-0.5c0.1-0.1,0.4-0.1,0.5,0l0,0c0.1,0.1,0.1,0.4,0,0.5l-0.5,0.5c-0.1,0.1-0.4,0.1-0.5,0
					l0,0C99.8,108.8,99.8,108.6,100,108.4z"/>
				<path fill="#808080" d="M99,107.5l1-1c0.1-0.1,0.4-0.1,0.5,0l0,0c0.1,0.1,0.1,0.4,0,0.5l-1,1c-0.1,0.1-0.4,0.1-0.5,0l0,0
					C98.9,107.8,98.9,107.6,99,107.5z"/>
			</g>
		</g>
	</g>
</g>
</svg>
